<svg width="66" height="101" viewBox="0 0 66 101" fill="none" xmlns="http://www.w3.org/2000/svg">
<path fill-rule="evenodd" clip-rule="evenodd" d="M65.137 1.94929C32.0731 7.21145 -7.68764 20.1127 20.1648 42.5987C21.7201 44.8819 24.0199 47.2825 27.1683 49.8031C28.8981 52.6016 31.7542 55.5798 35.9348 58.743C24.9119 50.0878 25.7219 34.1702 64.4489 25.0782L64.6063 19.7886C40.3088 25.2845 18.2691 34.9696 27.0393 49.5914C16.9569 40.1448 20.3512 23.8302 64.7337 15.5064L64.8903 10.2415C37.4938 15.4133 9.13396 25.743 19.9532 42.2818C9.69122 32.3152 14.3224 15.0296 64.9796 7.24009L65.137 1.94929Z" fill="#4E95FF"/>
<path fill-rule="evenodd" clip-rule="evenodd" d="M4.29324 100.644C36.7567 92.4543 75.2108 76.0588 45.4633 56.1455C43.7105 54.01 41.2058 51.824 37.8451 49.5941C35.8726 46.9611 32.7624 44.2495 28.3166 41.4718C40.0674 49.1098 40.6798 65.0366 2.91617 77.5456L3.23111 82.8281C26.9426 75.1875 48.0323 63.5754 37.9923 49.7934C48.8777 58.3033 46.9519 74.8563 3.48606 87.1046L3.79953 92.3625C30.6265 84.7685 57.954 71.9508 45.7023 56.4422C56.8126 65.4541 53.7413 83.0843 3.97823 95.3598L4.29324 100.644Z" fill="#4E95FF"/>
</svg>
